<svg width="1440" height="197" viewBox="0 0 1440 197" fill="none" xmlns="http://www.w3.org/2000/svg">
<g opacity="0.2" clip-path="url(#clip0_58_193)">
<g style="mix-blend-mode:overlay" opacity="0.5">
<path d="M14.8832 0H1432.11" stroke="#E0DBFC" stroke-width="1.25" stroke-miterlimit="10"/>
<path d="M-30.3254 8.41292H1477.7" stroke="#E0DBFC" stroke-width="1.25" stroke-miterlimit="10"/>
<path d="M-81.6702 17.9708H1528.94" stroke="#E0DBFC" stroke-width="1.25" stroke-miterlimit="10"/>
<path d="M-141.045 28.9261H1586.76" stroke="#E0DBFC" stroke-width="1.25" stroke-miterlimit="10"/>
<path d="M-208.612 41.6085H1653.76" stroke="#E0DBFC" stroke-width="1.25" stroke-miterlimit="10"/>
<path d="M-288.322 56.4548H1734.48" stroke="#E0DBFC" stroke-width="1.25" stroke-miterlimit="10"/>
<path d="M-385.401 74.0666H1827.99" stroke="#E0DBFC" stroke-width="1.25" stroke-miterlimit="10"/>
<path d="M-497.009 95.3076H1941.02" stroke="#E0DBFC" stroke-width="1.25" stroke-miterlimit="10"/>
<path d="M-639.132 121.42H2081.09" stroke="#E0DBFC" stroke-width="1.25" stroke-miterlimit="10"/>
<path d="M-813.889 154.314H2257.52" stroke="#E0DBFC" stroke-width="1.25" stroke-miterlimit="10"/>
<path d="M-1043.13 197H2485" stroke="#E0DBFC" stroke-width="1.25" stroke-miterlimit="10"/>
<path d="M14.883 0L-1043.13 197" stroke="#E0DBFC" stroke-width="1.25" stroke-miterlimit="10"/>
<path d="M85.7458 0L-866.73 197" stroke="#E0DBFC" stroke-width="1.25" stroke-miterlimit="10"/>
<path d="M156.597 0L-690.326 197" stroke="#E0DBFC" stroke-width="1.25" stroke-miterlimit="10"/>
<path d="M227.461 0L-513.921 197" stroke="#E0DBFC" stroke-width="1.25" stroke-miterlimit="10"/>
<path d="M298.325 0L-337.505 197" stroke="#E0DBFC" stroke-width="1.25" stroke-miterlimit="10"/>
<path d="M369.188 0L-161.101 197" stroke="#E0DBFC" stroke-width="1.25" stroke-miterlimit="10"/>
<path d="M440.051 0L15.3033 197" stroke="#E0DBFC" stroke-width="1.25" stroke-miterlimit="10"/>
<path d="M510.914 0L191.708 197" stroke="#E0DBFC" stroke-width="1.25" stroke-miterlimit="10"/>
<path d="M581.777 0L368.112 197" stroke="#E0DBFC" stroke-width="1.25" stroke-miterlimit="10"/>
<path d="M652.63 0L544.529 197" stroke="#E0DBFC" stroke-width="1.25" stroke-miterlimit="10"/>
<path d="M723.492 0L720.932 197" stroke="#E0DBFC" stroke-width="1.25" stroke-miterlimit="10"/>
<path d="M794.356 0L897.337 197" stroke="#E0DBFC" stroke-width="1.25" stroke-miterlimit="10"/>
<path d="M865.219 0L1073.74 197" stroke="#E0DBFC" stroke-width="1.25" stroke-miterlimit="10"/>
<path d="M936.083 0L1250.15 197" stroke="#E0DBFC" stroke-width="1.25" stroke-miterlimit="10"/>
<path d="M1006.95 0L1426.56 197" stroke="#E0DBFC" stroke-width="1.25" stroke-miterlimit="10"/>
<path d="M1077.81 0L1602.97 197" stroke="#E0DBFC" stroke-width="1.25" stroke-miterlimit="10"/>
<path d="M1148.67 0L1779.37 197" stroke="#E0DBFC" stroke-width="1.25" stroke-miterlimit="10"/>
<path d="M1219.52 0L1955.77 197" stroke="#E0DBFC" stroke-width="1.25" stroke-miterlimit="10"/>
<path d="M1290.39 0L2132.18 197" stroke="#E0DBFC" stroke-width="1.25" stroke-miterlimit="10"/>
<path d="M1361.25 0L2308.6 197" stroke="#E0DBFC" stroke-width="1.25" stroke-miterlimit="10"/>
<path d="M1432.11 0L2485 197" stroke="#E0DBFC" stroke-width="1.25" stroke-miterlimit="10"/>
</g>
</g>
<defs>
<clipPath id="clip0_58_193">
<rect width="1441" height="197" fill="white"/>
</clipPath>
</defs>
</svg>
