<svg width="212" height="277" viewBox="0 0 212 277" fill="none" xmlns="http://www.w3.org/2000/svg">
<path d="M109.314 0.00853854C115.576 -0.298849 131.281 10.8354 142.155 16.8636C153.028 22.8918 194.254 47.8586 200.575 51.8888C206.896 55.9189 213.378 58.6427 211 76.4542C208.622 94.2656 200.414 159.005 194.796 180.659C189.177 202.312 171.026 233.128 148.273 252.604C125.519 272.081 120.966 275.608 112.479 276C80 277.5 88.0794 257.442 78.9999 246C69.9204 234.558 45.8256 202.321 39.9954 186.294C34.1653 170.267 26.3804 149.997 24.9842 129.18C23.588 108.363 17.0978 66.2847 15.4816 52.9902C13.8654 39.6957 12.5623 34.4018 14.3985 28.8432C16.2347 23.2846 21.9041 18.1103 37.4654 15.0535C53.0266 11.9967 98.3311 1.6394 102.113 0.819701C105.896 5.96046e-08 107.842 0.0768469 109.314 0V0.00853854Z" fill="url(#paint0_linear_58_334)"/>
<path d="M95.3903 3.44271C101.625 3.13942 117.261 14.1251 128.086 20.0729C138.912 26.0206 179.956 50.6541 186.25 54.6305C192.543 58.607 198.996 61.2944 196.629 78.8681C194.261 96.4418 186.089 160.317 180.496 181.682C174.902 203.047 156.831 233.451 134.177 252.668C111.523 271.884 106.999 275.751 98.5411 275.751C90.0828 275.751 76.713 257.36 67.6734 246.071C58.6338 234.782 32.1806 203.055 26.376 187.242C20.5715 171.429 12.8209 151.429 11.4308 130.89C10.0407 110.351 3.57908 68.826 1.96998 55.7089C0.360886 42.5918 -0.936502 37.3685 0.891635 31.8841C2.71977 26.3997 8.36425 21.2944 23.8571 18.2784C39.3499 15.2624 84.4552 5.0518 88.221 4.25147C91.9868 3.45113 93.9244 3.51853 95.3903 3.44271Z" fill="white"/>
<path d="M95.9798 22.3728C101.051 22.1285 113.781 31.067 122.593 35.9111C131.405 40.7553 164.826 60.8058 169.948 64.0493C175.07 67.2927 180.327 69.4747 178.398 83.7797C176.468 98.0762 169.821 150.09 165.264 167.478C160.706 184.866 146.005 209.618 127.555 225.262C109.114 240.907 105.432 244.058 98.5493 244.058C91.6664 244.058 80.7734 229.087 73.4187 219.896C66.0641 210.705 44.5224 184.875 39.7962 172.002C35.07 159.129 28.7684 142.845 27.6226 126.122C26.4769 109.399 21.2284 75.5994 19.9141 64.9254C18.5999 54.243 17.5468 49.997 19.038 45.532C20.5291 41.067 25.1205 36.9052 37.7321 34.4537C50.3438 32.0021 87.0666 23.687 90.1331 23.0299C93.1997 22.3728 94.7751 22.4318 95.9714 22.3728H95.9798Z" fill="#F6F4FF" stroke="#D5CDFB" stroke-miterlimit="10"/>
<path d="M50.1287 186.665V119.245C50.1287 119.245 49.931 111.656 57.0866 112.531C64.2422 113.405 87.017 117.968 93.359 119.2C99.7009 120.432 100.963 123.564 100.963 126.446C100.963 129.329 101.161 133.077 101.161 133.077C101.161 133.077 135.365 139.336 139.973 140.263C144.581 141.191 147.821 142.56 147.821 148.484C147.821 154.407 147.433 200.292 147.433 202.04C147.433 203.789 146.429 210.322 138.506 209.128C130.582 207.934 61.2309 194.596 57.1246 193.531C53.0183 192.467 50.1363 190.102 50.1363 186.672L50.1287 186.665Z" fill="#431BEF"/>
<path d="M137.89 152.278C137.821 152.278 137.745 152.278 137.677 152.255L59.3377 137.305C58.7217 137.184 58.3111 136.591 58.4328 135.975C58.5544 135.359 59.1552 134.948 59.7635 135.07L138.103 150.02C138.719 150.141 139.129 150.735 139.008 151.35C138.901 151.898 138.422 152.278 137.89 152.278Z" fill="white"/>
<path d="M102.176 132.757L101.634 132.657C101.631 132.588 101.627 132.51 101.623 132.424C101.606 132.029 101.582 131.472 101.558 130.824C101.511 129.529 101.463 127.878 101.463 126.447C101.463 124.932 101.131 123.295 99.9199 121.877C98.7133 120.463 96.6922 119.334 93.454 118.709C92.5916 118.541 91.4235 118.311 90.031 118.037C85.152 117.078 77.518 115.577 70.6282 114.297V62.9466L87.3599 47.2206L87.5386 47.2581L88.7668 47.5155C89.8261 47.7374 91.3419 48.0549 93.1679 48.4369C96.82 49.2011 101.713 50.2236 106.677 51.2574C116.592 53.3222 126.823 55.4388 127.972 55.62C129.067 55.7928 130.351 56.1601 131.357 57.0258C132.341 57.8734 133.116 59.2486 133.116 61.5669V138.453C127.515 137.414 119.725 135.98 113.249 134.79C109.896 134.174 106.894 133.622 104.731 133.225L102.176 132.757Z" fill="white" stroke="#D5CDFB" stroke-miterlimit="10"/>
<path d="M82.7029 63.8772L82.7023 63.8771L71.2395 62.372L86.6346 47.9023L85.849 61.2784C85.7522 62.8913 84.307 64.0898 82.7029 63.8772Z" fill="white" stroke="#D5CDFB" stroke-linejoin="round"/>
<path d="M102.453 76.9807C102.453 76.9807 102.393 76.9807 102.362 76.9731L77.8004 72.4106C77.5343 72.3574 77.3518 72.1064 77.405 71.8327C77.4582 71.5665 77.7092 71.3916 77.9829 71.4372L102.545 75.9998C102.811 76.053 102.993 76.304 102.94 76.5777C102.895 76.8135 102.689 76.9807 102.453 76.9807Z" fill="#D5CDFB"/>
<path d="M126.24 94.1588C126.24 94.1588 126.179 94.1588 126.149 94.1512L115.959 92.3033C115.693 92.2577 115.51 91.9992 115.563 91.7254C115.609 91.4593 115.868 91.2768 116.141 91.33L126.331 93.1778C126.597 93.2234 126.78 93.482 126.727 93.7557C126.681 93.9915 126.476 94.1588 126.24 94.1588Z" fill="#D5CDFB"/>
<path d="M126.24 107.17C126.24 107.17 126.179 107.17 126.149 107.162L111.1 104.25C110.834 104.196 110.659 103.938 110.712 103.672C110.765 103.406 111.031 103.231 111.29 103.284L126.339 106.196C126.605 106.25 126.78 106.508 126.727 106.774C126.681 107.01 126.476 107.177 126.24 107.177V107.17Z" fill="#D5CDFB"/>
<path d="M126.24 120.272C126.24 120.272 126.179 120.272 126.149 120.264L105.571 116.576C105.305 116.531 105.123 116.272 105.168 116.006C105.214 115.74 105.48 115.557 105.739 115.61L126.316 119.298C126.582 119.344 126.764 119.603 126.719 119.869C126.673 120.105 126.468 120.279 126.232 120.279L126.24 120.272Z" fill="#D5CDFB"/>
<path d="M90.1727 113.481C90.1727 113.481 90.1119 113.481 90.0815 113.474L77.8006 111.147C77.5344 111.093 77.3596 110.835 77.4052 110.569C77.4584 110.303 77.7094 110.12 77.9831 110.173L90.264 112.5C90.5301 112.554 90.705 112.812 90.6594 113.078C90.6138 113.314 90.4085 113.481 90.1727 113.481Z" fill="#D5CDFB"/>
<path d="M82.9415 99.208C82.9415 99.208 82.8654 99.208 82.8274 99.1928L77.7782 98.0294C77.512 97.9685 77.3447 97.7024 77.4056 97.4362C77.4664 97.1701 77.7325 97.0028 77.9987 97.0636L83.0479 98.2271C83.3141 98.2879 83.4814 98.5541 83.4205 98.8202C83.3673 99.0483 83.162 99.2004 82.9415 99.2004V99.208Z" fill="#D5CDFB"/>
<path d="M86.5544 85.8777L95.2994 107.93C98.3411 100.072 106.782 82.4558 116.211 74.8516" stroke="#431BEF" stroke-width="5" stroke-linecap="round" stroke-linejoin="round"/>
<defs>
<linearGradient id="paint0_linear_58_334" x1="13.5029" y1="139.524" x2="211.503" y2="139.524" gradientUnits="userSpaceOnUse">
<stop stop-color="#431BEF"/>
<stop offset="1" stop-color="#906CFF"/>
</linearGradient>
</defs>
</svg>
