<svg width="26" height="26" viewBox="0 0 26 26" fill="none" xmlns="http://www.w3.org/2000/svg">
<path d="M13.0017 0C5.82116 0 0 5.8557 0 13.0789C0 19.6078 4.75801 25.0217 10.9766 26V16.8553H7.65464V13.0789H10.9766L10.98 10.1966C10.98 6.91814 12.9111 5.10182 15.881 5.10182C17.3032 5.10182 18.7811 5.37882 18.7811 5.37882V8.57667H17.1498C15.5359 8.57667 15.02 9.59351 15.02 10.6279L15.0234 13.0824H18.6347L18.056 16.8553H15.0234V25.9965C21.242 25.0182 26 19.6078 26 13.0754C26 5.8557 20.1788 0 13.0017 0Z" fill="#1877F2"/>
</svg>
