<svg width="25" height="26" viewBox="0 0 25 26" fill="none" xmlns="http://www.w3.org/2000/svg">
<g clip-path="url(#clip0_318_136)">
<path fill-rule="evenodd" clip-rule="evenodd" d="M25 13.0386C25 12.1315 24.915 11.267 24.7733 10.4308H12.7551V15.3628H19.6145C19.3169 16.9501 18.4241 18.3107 17.0635 19.2177V22.4206H21.1877C23.597 20.1956 24.9859 16.9359 24.9859 13.0527L25 13.0386Z" fill="#3E82F1"/>
<path fill-rule="evenodd" clip-rule="evenodd" d="M12.7552 25.5102C16.199 25.5102 19.0902 24.3623 21.2019 22.4207L17.0777 19.2177C15.9298 19.983 14.47 20.4365 12.7552 20.4365C9.43883 20.4365 6.61853 18.1973 5.6123 15.1786H1.3606V18.4807C3.4581 22.6474 7.76649 25.5102 12.7552 25.5102Z" fill="#32A753"/>
<path fill-rule="evenodd" clip-rule="evenodd" d="M5.61225 15.1786C5.35714 14.4133 5.21542 13.5913 5.21542 12.7551C5.21542 11.9189 5.35714 11.0969 5.61225 10.3316V7.02948H1.36054C0.496032 8.74433 0 10.7001 0 12.7551C0 14.8101 0.496032 16.7659 1.36054 18.4807L5.62642 15.1786H5.61225Z" fill="#F9BB00"/>
<path fill-rule="evenodd" clip-rule="evenodd" d="M12.7552 5.07371C14.6259 5.07371 16.3124 5.71146 17.6304 6.98697L21.2869 3.33051C19.076 1.27552 16.1849 0.014182 12.7552 0.014182C7.76649 9.68669e-06 3.4581 2.86282 1.3606 7.02949L5.62647 10.3316C6.6327 7.31294 9.43883 5.07371 12.7693 5.07371H12.7552Z" fill="#E74235"/>
</g>
<defs>
<clipPath id="clip0_318_136">
<rect width="25" height="25.5102" fill="white"/>
</clipPath>
</defs>
</svg>
