<svg width="70" height="81" viewBox="0 0 70 81" fill="none" xmlns="http://www.w3.org/2000/svg">
<path d="M34.9372 80.0167C24.9238 80.0167 14.9072 80.0135 4.89377 80.0167C2.13404 80.0167 0.0485573 77.6113 0.00465245 75.162C-0.12079 67.8582 2.29398 61.4418 6.82245 55.8565C10.9213 50.8011 16.2526 47.386 22.5812 45.8775C25.5792 45.1625 28.7561 45.059 31.8608 44.9586C35.4861 44.8395 39.1302 44.8708 42.746 45.128C45.9887 45.3601 49.1279 46.2256 52.1511 47.5271C56.4099 49.3585 59.9599 52.1277 62.9485 55.5899C66.417 59.6072 68.7095 64.2548 69.5061 69.5454C69.7789 71.3674 69.8573 73.2177 69.989 75.0586C70.1897 77.8936 67.6087 80.0135 65.0999 80.0167C55.0457 80.0292 44.9915 80.0229 34.9372 80.0229V80.0135V80.0167Z" fill="#D5CDFB"/>
<path d="M34.8683 0.012556C46.1362 -0.329275 54.3558 9.0256 54.9893 18.2707C55.8517 30.815 45.5999 40.797 33.4759 39.9033C23.4468 39.1663 15.8763 31.3293 15.0735 21.5698C14.0417 9.0256 24.3437 -0.391996 34.8683 0.012556Z" fill="#D5CDFB"/>
</svg>
