<svg width="70" height="78" viewBox="0 0 70 78" fill="none" xmlns="http://www.w3.org/2000/svg">
<path d="M61.2112 68.5974C61.1659 68.8826 61.3665 68.8826 61.5605 68.9086C62.5407 69.0382 63.5176 69.1614 64.4492 69.5407C65.8434 70.1079 67.0305 70.9281 67.9848 72.1145C68.8484 73.1875 69.4501 74.3739 69.7606 75.7062C69.903 76.3156 69.9224 76.9542 70 77.6057H0C0.00970425 76.6819 0.216728 75.8067 0.462569 74.9379C0.84427 73.6024 1.5915 72.4678 2.54898 71.5083C3.84935 70.2084 5.39556 69.2976 7.26848 69.0739C7.68577 69.0253 8.10305 68.9896 8.51063 68.8988C8.61738 68.8761 8.75647 68.6719 8.75647 68.552C8.75 67.3202 8.71765 66.0851 8.69824 64.8533C8.69824 64.7496 8.71118 64.6426 8.72089 64.4903H13.1654C13.1654 63.6539 13.1654 62.863 13.1654 62.0753C13.1654 52.9373 13.1654 36.1902 13.1654 27.0522C13.1654 26.4471 12.8549 26.1456 12.2338 26.1478C8.30361 26.1478 4.37338 26.1413 0.439926 26.1381C0.365527 26.1381 0.287893 26.1381 0.106747 26.1381C0.57902 25.7685 0.960721 25.4606 1.35536 25.1656C2.6622 24.1899 3.97874 23.2239 5.28558 22.2482C6.97089 20.9904 8.64972 19.723 10.3286 18.4588C12.4311 16.8769 14.5305 15.295 16.6331 13.7131C18.3863 12.3938 20.1396 11.0712 21.8928 9.75186C23.4681 8.56544 25.0402 7.38226 26.6188 6.19908C28.2782 4.95431 29.9441 3.71278 31.6067 2.46801C32.6354 1.69651 33.6576 0.91205 34.6862 0.13731C34.8771 -0.00856118 35.0453 -0.0701513 35.2879 0.114619C36.4977 1.03847 37.7269 1.93315 38.9399 2.85052C40.7482 4.21523 42.5467 5.5929 44.3549 6.95437C45.969 8.16996 47.5994 9.36287 49.2135 10.5752C50.8115 11.7746 52.3997 12.9934 53.9945 14.1961C55.0749 15.0097 56.1682 15.8104 57.2519 16.624C59.0698 17.992 60.8812 19.3761 62.6992 20.7408C64.2227 21.8851 65.756 23.0197 67.2893 24.151C68.1497 24.7896 69.0199 25.4184 69.8836 26.0506L69.8997 26.1348C65.6751 26.1348 61.4506 26.1348 57.2227 26.1284C56.9478 26.1284 56.8863 26.2191 56.8863 26.4752C56.896 36.3167 56.8993 53.7639 56.9025 63.6053C56.9025 63.7123 56.9025 63.8225 56.8863 63.9262C56.786 64.5486 56.8799 64.5875 57.5009 64.5681C58.7398 64.5259 59.982 64.5551 61.2177 64.5551V68.6006L61.2112 68.5974ZM17.4288 26.3585C17.4288 26.3909 17.4288 26.4266 17.4288 26.459C17.4256 26.5919 17.4191 26.728 17.4191 26.861C17.4094 36.6603 17.403 54.0621 17.3933 63.8614C17.3933 64.3325 17.6315 64.5421 18.1081 64.4903C18.1599 64.4838 18.2149 64.4903 18.2699 64.4903C19.3147 64.4903 20.3628 64.4903 21.4076 64.4903C21.5628 64.4903 21.7214 64.4773 21.8831 64.4676V26.1284C20.4598 26.1284 19.0527 26.1251 17.6488 26.1381C17.5744 26.1381 17.5032 26.284 17.4288 26.3585ZM39.3896 64.5V26.1575H30.6266V64.5H39.3896ZM52.4838 26.151H48.1299V64.4968H52.4838V26.151Z" fill="#D5CDFB"/>
</svg>
