<svg width="75" height="75" viewBox="0 0 75 75" fill="none" xmlns="http://www.w3.org/2000/svg">
<circle opacity="0.1" cx="37.5" cy="37.5" r="37.5" fill="white"/>
<path d="M46.5938 34.8154V29.9829C46.5938 27.7514 45.8341 25.7082 44.5278 24.1376C42.9328 22.2152 40.6469 21 38.0172 21C33.2253 21 29.4062 25.0295 29.4062 29.9793V34.8119H27V54H49V34.8119H46.5938V34.8154ZM39.5297 44.5161V48.7801H36.6181V44.5161C36.0372 44.0613 35.6556 43.3151 35.6556 42.4694C35.6556 41.0836 36.7728 39.9607 38.1134 39.9607C38.1134 39.9607 38.1272 39.9607 38.1306 39.9607C38.1341 39.9607 38.1409 39.9607 38.1409 39.9607C39.4816 39.9607 40.5609 41.0836 40.5609 42.4694C40.5609 43.3151 40.1106 44.0613 39.5297 44.5161ZM42.4688 34.8154H33.1875V29.5209C33.1875 26.6747 35.0747 24.3544 37.8281 24.3544C40.5816 24.3544 42.4688 26.6747 42.4688 29.5209V34.8154Z" fill="white"/>
</svg>
