<svg width="75" height="75" viewBox="0 0 75 75" fill="none" xmlns="http://www.w3.org/2000/svg">
<circle opacity="0.1" cx="37.5" cy="37.5" r="37.5" fill="white"/>
<path d="M42.2583 18.0005C42.5119 18.1386 42.7869 18.2483 43.0149 18.4204C43.5105 18.7958 43.6146 19.3588 43.6172 19.9319C43.6271 22.4106 43.6412 24.8894 43.6146 27.3682C43.5952 29.1448 43.1069 30.7885 41.9755 32.1892C40.9115 33.5057 39.537 34.3705 37.8963 34.782C36.9599 35.0167 36.0052 34.9974 35.0474 34.8766C33.9578 34.7391 32.9832 34.325 32.0793 33.7232C30.3251 32.5557 29.2826 30.9072 28.8502 28.8661C28.7624 28.4515 28.7692 28.0128 28.7666 27.5851C28.7577 26.0391 28.7017 24.49 28.7828 22.9481C28.8502 21.6677 29.6706 20.5169 30.9651 20.1724C32.4578 19.775 33.9923 19.5324 35.5091 19.226C36.8684 18.951 38.2283 18.6771 39.5898 18.4099C40.2093 18.2886 40.8331 18.1861 41.4542 18.0711C41.4955 18.0633 41.5311 18.0246 41.5692 18C41.7993 18 42.0293 18 42.2594 18L42.2583 18.0005Z" fill="white"/>
<path d="M47.7236 46.6812C47.356 46.3053 46.9665 45.9032 46.5723 45.5058C45.8361 44.7634 44.9703 44.3321 43.8975 44.3739C43.1252 44.4042 42.4675 44.7064 41.9206 45.2235C41.1787 45.9257 40.452 46.6461 39.7508 47.3896C38.5473 48.6659 38.5551 50.5434 39.7712 51.8133C40.5806 52.6582 41.4244 53.4697 42.3138 54.3574C42.147 54.3574 42.0524 54.3574 41.9583 54.3574C36.4648 54.3574 30.9714 54.3574 25.478 54.3574C24.6545 54.3574 24.2854 54.1195 24.0647 53.444C24.0271 53.329 24.0151 53.2009 24.0151 53.0791C24.0114 48.6716 23.9764 44.2636 24.0276 39.8566C24.0449 38.388 25.1585 37.0809 26.6198 36.8906C27.8349 36.7321 29.0803 36.763 30.3111 36.7849C31.0012 36.7975 31.385 37.2247 31.5246 37.8071C32.004 39.8127 32.4881 41.8178 32.9749 43.8213C33.1239 44.4345 33.2442 45.0604 33.4632 45.6491C33.6081 46.0386 33.9061 46.3706 34.1351 46.7287C34.1847 46.7073 34.2344 46.6854 34.2841 46.6639C34.2579 46.4412 34.2255 46.2195 34.2072 45.9963C34.1147 44.8497 34.4796 43.78 34.7698 42.6977C35.0506 41.6499 35.3334 40.6027 35.6048 39.5523C35.6283 39.4624 35.5948 39.3437 35.5546 39.2533C35.3146 38.7095 35.0647 38.1705 34.8195 37.6288C34.6067 37.1588 34.8132 36.7912 35.325 36.774C35.9122 36.7541 36.5004 36.7541 37.0875 36.7719C37.5806 36.787 37.7813 37.0955 37.5957 37.5697C37.3934 38.0858 37.1257 38.5767 36.9322 39.0959C36.8523 39.3102 36.8287 39.5847 36.8847 39.8054C37.2794 41.3592 37.7453 42.8964 38.0929 44.4602C38.2284 45.0682 38.117 45.7317 38.118 46.3696C38.118 46.4673 38.118 46.5651 38.118 46.7497C38.5933 46.3764 38.8992 45.9717 39.0299 45.475C39.3582 44.2223 39.6499 42.9596 39.9563 41.7012C40.2862 40.3465 40.602 38.9887 40.9523 37.6398C41.0919 37.1034 41.4825 36.7933 42.0487 36.7839C43.0703 36.7672 44.0946 36.728 45.1136 36.7818C46.658 36.8634 47.7999 37.6952 48.2422 39.1293C48.3693 39.5424 48.4325 39.9894 48.4388 40.4223C48.4613 42.006 48.4242 43.5912 48.4592 45.1744C48.4728 45.8002 48.408 46.3351 47.722 46.6817L47.7236 46.6812Z" fill="white"/>
<path d="M47.7372 48.5226C50.5318 45.7276 53.3049 42.9539 56.078 40.1803C56.96 39.2977 58.1516 39.3009 59.0367 40.186C59.6422 40.7915 60.2361 41.4084 60.8557 41.9987C61.7382 42.8399 61.7456 44.0958 60.8813 44.9595C57.0134 48.8248 53.1522 52.698 49.2754 56.5544C48.5576 57.2686 47.6938 57.5149 46.8913 57.026C46.6801 56.8974 46.4725 56.7495 46.2973 56.5753C44.4674 54.7554 42.6438 52.9291 40.8196 51.1039C39.8592 50.1434 39.8602 49.0371 40.8212 48.0761C41.4444 47.4529 42.0676 46.8287 42.6919 46.2065C43.4453 45.4552 44.6682 45.4478 45.4185 46.195C46.1876 46.9615 46.9514 47.7332 47.7378 48.5226H47.7372Z" fill="white"/>
</svg>
