<svg width="75" height="75" viewBox="0 0 75 75" fill="none" xmlns="http://www.w3.org/2000/svg">
<circle opacity="0.1" cx="37.5" cy="37.5" r="37.5" fill="white"/>
<path d="M49.3029 16.949C49.3029 16.949 38.403 20.3605 33.2195 29.3386C29.9666 34.9728 27.6842 41.9234 27.2752 46.8057C29.5634 46.887 31.7399 47.3679 31.7399 47.3679C31.7399 47.3679 33.245 49.0126 34.4596 50.9536C38.4833 48.1583 43.3615 42.7063 46.6144 37.0722C51.7985 28.0943 49.3029 16.949 49.3029 16.949ZM44.4346 25.3812C45.2665 25.8615 45.5515 26.925 45.0712 27.7569C44.5909 28.5888 43.5274 28.8738 42.6954 28.3935C41.8635 27.9132 41.5789 26.8491 42.0589 26.0178C42.5389 25.1864 43.6032 24.9012 44.4346 25.3812ZM38.5651 35.5474C37.1231 34.7149 36.6285 32.8706 37.4614 31.4281C38.2942 29.9855 40.1382 29.4914 41.5807 30.3243C43.0232 31.1571 43.5173 33.0011 42.6845 34.4436C41.8516 35.8862 40.0077 36.3802 38.5651 35.5474Z" fill="white"/>
<path d="M27.6305 35.3009C24.9476 35.1736 22.4887 35.6491 20.3429 36.5431L16.9217 42.4687C20.1287 42.1402 23.0212 43.2607 24.7511 45.0221C24.8591 41.2965 26.1173 38.4052 27.6305 35.3009Z" fill="white"/>
<path d="M46.8663 52.2892C46.6216 49.8388 45.7956 47.3052 44.2464 44.8941C42.3146 47.7567 40.4395 50.2925 37.2673 52.2483C39.742 52.8868 42.2466 54.9491 43.5302 58.0674L46.8663 52.2892Z" fill="white"/>
<path d="M20.6389 50.3705L30.666 48.9381L31.1434 58.9652L20.6389 50.3705Z" fill="white"/>
</svg>
