<svg xmlns="http://www.w3.org/2000/svg" width="163" height="177" viewBox="0 0 163 177" fill="none">
<path d="M150.399 87.9875C150.33 87.9875 150.261 87.9875 150.192 87.9817C134.875 86.7278 124.326 73.6307 123.883 73.0728C123.003 71.9626 123.187 70.3463 124.297 69.4606C125.407 68.5805 127.023 68.7646 127.903 69.8747C128.024 70.03 137.049 81.1542 149.548 82.7417C153.603 78.7211 157.014 68.0858 156.64 64.8648C156.64 64.836 156.634 64.8072 156.634 64.7727C156.548 63.7374 156.358 60.1942 157.376 58.0775C157.992 56.8006 159.527 56.2599 160.804 56.8753C162.081 57.4908 162.622 59.0266 162.006 60.3035C161.753 60.8327 161.633 62.7423 161.753 64.3241C162.323 69.6159 157.739 82.9718 151.975 87.4411C151.521 87.7919 150.968 87.9817 150.399 87.9817V87.9875Z" fill="white"/>
<path d="M28.5848 74.0448C24.0235 74.0448 11.1104 72.9232 0.653449 61.2296C-0.157572 60.3208 -0.220843 58.9633 0.503899 57.9855C4.65679 52.4004 11.9847 39.2112 13.1294 34.9145C12.6577 34.0978 11.8064 32.9244 10.7481 32.4239C9.9313 32.0386 9.37336 31.2506 9.28133 30.3533L8.86719 26.1428C8.72915 24.7279 9.75874 23.474 11.1737 23.3359C12.5829 23.1979 13.8426 24.2275 13.9806 25.6424L14.2682 28.5702C16.7761 30.3705 18.03 33.1774 18.1853 33.5398C18.3579 33.9482 18.4211 34.3969 18.3751 34.8397C17.8459 39.4068 10.4432 52.6132 5.8877 59.2912C16.523 69.892 29.2347 68.9256 29.7927 68.8739C31.1961 68.7588 32.4501 69.7942 32.5766 71.2034C32.7032 72.6126 31.6678 73.8608 30.2586 73.9931C30.1378 74.0046 29.5511 74.0563 28.5905 74.0563L28.5848 74.0448Z" fill="white"/>
<path d="M111.436 176.015H104.551C103.745 176.015 102.992 175.641 102.503 175.003C102.02 174.364 101.859 173.536 102.072 172.759C103.872 166.294 104.752 161.037 105.419 152.794C102.98 141.319 100.685 130.816 100.662 130.707C100.358 129.321 101.238 127.952 102.624 127.647C104.01 127.342 105.379 128.222 105.684 129.608C105.707 129.718 108.054 140.457 110.527 152.087C110.579 152.328 110.596 152.576 110.573 152.823C109.992 160.22 109.244 165.334 107.881 170.873H111.436C112.856 170.873 114.007 172.023 114.007 173.444C114.007 174.865 112.856 176.015 111.436 176.015Z" fill="white"/>
<path d="M58.2073 176.015H54.319C53.577 176.015 52.8695 175.693 52.3806 175.129C51.8917 174.571 51.6731 173.823 51.7766 173.087C52.4381 168.371 55.826 159.783 59.4267 151.149C60.7094 139.761 61.762 129.982 61.7735 129.884C61.923 128.475 63.1885 127.446 64.6034 127.607C66.0126 127.756 67.0365 129.022 66.8812 130.437C66.8697 130.534 65.7941 140.537 64.4941 152.093C64.4654 152.334 64.4079 152.57 64.3101 152.794C61.7562 158.909 58.8515 166.11 57.5228 170.878H58.213C59.6338 170.878 60.7842 172.029 60.7842 173.45C60.7842 174.87 59.6338 176.021 58.213 176.021L58.2073 176.015Z" fill="white"/>
<path d="M60.4432 0.512291L30.493 30.4625C28.986 63.6569 29.1125 98.525 30.493 134.682H129.518C127.557 88.0278 127.373 43.1225 129.518 0.518043H60.4375L60.4432 0.512291Z" fill="#171235"/>
<path d="M129.525 135.194H30.4937C30.2176 135.194 29.9933 134.975 29.9818 134.699C28.5438 97.1618 28.5438 62.0808 29.9818 30.4395C29.9876 30.313 30.0393 30.1922 30.1314 30.1002L60.0816 0.149924C60.1794 0.0521411 60.3059 0.00037384 60.444 0.00037384H129.525C129.663 0.00037384 129.801 0.057893 129.898 0.161428C129.996 0.264962 130.048 0.403008 130.042 0.541054C127.977 41.5753 127.977 85.4509 130.042 134.659C130.048 134.797 129.996 134.935 129.898 135.038C129.801 135.136 129.668 135.194 129.53 135.194H129.525ZM30.9941 134.164H128.99C126.953 85.3531 126.953 41.7938 128.99 1.02422H60.6625L31.0056 30.6811C29.5849 62.1039 29.5849 96.9145 30.9941 134.164Z" fill="white"/>
<path d="M66.2363 62.7538C66.1213 60.2517 64.7006 58.2673 63.0555 58.3248C61.4105 58.3824 60.1738 60.4646 60.2831 62.9666C60.3981 65.4687 61.8188 67.4531 63.4639 67.3956C65.1089 67.3381 66.3456 65.2559 66.2363 62.7538Z" fill="white"/>
<path d="M100.961 61.9716C100.846 59.4695 99.4257 57.4851 97.7806 57.5426C96.1356 57.6001 94.8989 59.6823 95.0082 62.1844C95.1232 64.6865 96.544 66.6709 98.189 66.6134C99.8341 66.5558 101.071 64.4736 100.961 61.9716Z" fill="white"/>
<path d="M74.9048 73.0152C84.0101 69.7654 91.0447 73.5847 91.3726 73.763C91.7292 73.9643 91.8558 74.4072 91.6544 74.7638C91.4531 75.1147 91.0045 75.2412 90.6479 75.0457C90.5673 74.9997 82.3708 70.5822 72.5811 75.6266C72.2187 75.8107 71.7701 75.6726 71.5802 75.316C71.3904 74.9536 71.5285 74.5107 71.8908 74.3267C72.9147 73.7975 73.9213 73.3661 74.8991 73.0152H74.9048Z" fill="white"/>
<path d="M61.2669 39.2572C61.5142 39.263 61.7615 39.332 61.9916 39.4643C62.6991 39.8784 62.9349 40.7815 62.5208 41.4832C58.3851 48.4718 51.5691 48.8169 51.2815 48.8284C50.4648 48.8629 49.7745 48.2302 49.7343 47.4192C49.694 46.6082 50.321 45.9295 51.132 45.8949C51.3563 45.8834 56.6653 45.5556 59.9669 39.982C60.2488 39.5103 60.7549 39.2515 61.2669 39.263V39.2572Z" fill="white"/>
<path d="M96.0145 38.4117C96.4861 38.3197 96.9923 38.4577 97.3547 38.8201C101.973 43.4389 107.213 42.4956 107.432 42.4553C108.232 42.3 109.014 42.8177 109.175 43.6114C109.336 44.4052 108.83 45.176 108.036 45.337C107.748 45.3888 101.047 46.6715 95.261 40.885C94.6858 40.3098 94.6858 39.378 95.261 38.8086C95.4738 38.5958 95.7384 38.4635 96.0145 38.4117Z" fill="white"/>
<path d="M60.4449 30.4625C57.1605 20.7648 58.5007 7.5814 60.4449 0.512291L30.4946 30.4625C39.5597 32.1133 49.6888 31.8545 60.4449 30.4625Z" fill="#171235"/>
<path d="M44.1899 32.1191C39.1915 32.1191 34.6187 31.7337 30.4026 30.9687C30.2128 30.9342 30.0632 30.8019 30.0057 30.6178C29.9482 30.4338 29.9999 30.2382 30.1322 30.1002L60.0825 0.149923C60.2493 -0.0168831 60.5024 -0.0456428 60.7037 0.0693957C60.905 0.184434 61.0028 0.426015 60.9395 0.65034C59.1277 7.23054 57.6322 20.5577 60.928 30.2957C60.9798 30.4395 60.9568 30.6006 60.8762 30.7329C60.7957 30.8652 60.6577 30.9515 60.5081 30.9687C54.5951 31.7337 49.1826 32.1133 44.1899 32.1133V32.1191ZM31.5587 30.1289C39.5136 31.4461 48.7569 31.4174 59.7604 30.0369C57.0512 21.4493 57.6667 10.0777 59.49 2.19761L31.5587 30.1289Z" fill="white"/>
</svg>