<svg width="75" height="75" viewBox="0 0 75 75" fill="none" xmlns="http://www.w3.org/2000/svg">
<circle opacity="0.1" cx="37.5" cy="37.5" r="37.5" fill="white"/>
<path d="M38.6403 39.4583C38.6403 39.8119 38.4463 40.1268 38.1927 40.3178V42.1084H36.9288V40.3178C36.6766 40.1268 36.5125 39.8119 36.5125 39.4583C36.5125 38.8748 36.9974 38.4048 37.5794 38.4048H37.5913C38.1733 38.4048 38.6403 38.8748 38.6403 39.4583Z" fill="white"/>
<path d="M39.4686 34.0207V36.2441H35.4397V34.0207C35.4397 32.824 36.2589 31.8511 37.4542 31.8511C38.6494 31.8511 39.4686 32.824 39.4686 34.0207Z" fill="white"/>
<path d="M51.3658 30.4633C51.3658 29.3069 52.9923 27.2252 52.9923 27.2252L51.9656 23.0635C41.9082 28.2668 37.545 20 37.545 20C37.545 20 33.152 28.2668 23.0945 23.0635L22.053 27.2252C22.053 27.2252 23.672 29.3069 23.672 30.4633C23.672 31.6198 23.5124 32.8046 23.4959 33.9745C23.4631 36.2501 23.6228 38.5376 24.066 40.7714C24.5882 43.3992 25.5194 45.93 27.0205 48.1593C28.6172 50.5319 31.042 51.9689 33.4429 53.4134C33.8787 53.6745 34.3159 53.9341 34.7695 54.161C36.3886 54.9697 37.545 55.78 37.545 55.78C37.545 55.78 38.7283 55.0727 40.2922 54.161C41.468 53.4745 42.5036 52.909 43.5601 52.2032C44.8747 51.3243 46.2087 50.4424 47.2339 49.2233C48.2277 48.0414 49.0021 46.685 49.6065 45.2674C49.9183 44.5333 50.1869 43.7812 50.4152 43.0187C51.0912 40.761 51.4165 38.4078 51.5135 36.0576C51.5807 34.4564 51.5329 32.8568 51.4165 31.2601C51.3971 30.996 51.3658 30.7274 51.3658 30.4633ZM42.3036 44.302H32.7536V36.2441H33.7981V34.2147C33.7981 32.1346 35.4574 30.4424 37.5361 30.4424C38.6791 30.4424 39.6714 30.9542 40.3638 31.7585C40.9308 32.4181 41.2591 33.2776 41.2591 34.2147V36.2441H42.3036V44.302Z" fill="white"/>
</svg>
