<svg width="207" height="31" viewBox="0 0 207 31" fill="none" xmlns="http://www.w3.org/2000/svg">
<path d="M15.5034 3.70442e-07C12.4376 -0.00066974 9.44054 0.90782 6.89113 2.61057C4.34172 4.31333 2.35452 6.73386 1.18085 9.56606C0.007169 12.3983 -0.300266 15.5149 0.297422 18.5218C0.89511 21.5287 2.37107 24.2909 4.53865 26.4589C6.70623 28.627 9.46806 30.1036 12.4749 30.7019C15.4817 31.3003 18.5984 30.9935 21.4308 29.8204C24.2633 28.6474 26.6842 26.6607 28.3875 24.1117C30.0909 21.5627 31 18.5658 31 15.5C30.9955 11.3911 29.3615 7.45174 26.4564 4.54599C23.5513 1.64025 19.6123 0.00538076 15.5034 3.70442e-07ZM19.8027 9.19497C19.8027 9.25697 19.7781 9.31643 19.7343 9.36027C19.6904 9.40411 19.631 9.42874 19.569 9.42874H17.7056C17.486 9.42874 17.2754 9.51573 17.1198 9.67066C16.9643 9.82559 16.8764 10.0359 16.8755 10.2554V12.2069H19.5283C19.5605 12.2072 19.5923 12.2142 19.6217 12.2274C19.651 12.2406 19.6774 12.2598 19.699 12.2836C19.7206 12.3075 19.7371 12.3355 19.7474 12.3661C19.7576 12.3966 19.7615 12.4289 19.7587 12.461L19.5283 15.212C19.5232 15.2704 19.4963 15.3248 19.453 15.3643C19.4097 15.4039 19.3532 15.4257 19.2945 15.4255H16.8755V24.5561C16.8755 24.6181 16.8509 24.6775 16.8071 24.7214C16.7632 24.7652 16.7038 24.7898 16.6418 24.7898H13.3046C13.2426 24.7898 13.1831 24.7652 13.1393 24.7214C13.0955 24.6775 13.0708 24.6181 13.0708 24.5561V15.4255H11.4039C11.3419 15.4255 11.2825 15.4008 11.2386 15.357C11.1948 15.3131 11.1702 15.2537 11.1702 15.1917V12.4407C11.1702 12.3787 11.1948 12.3192 11.2386 12.2754C11.2825 12.2315 11.3419 12.2069 11.4039 12.2069H13.0708V9.55748C13.0708 8.66972 13.4235 7.81831 14.0512 7.19057C14.679 6.56283 15.5304 6.21016 16.4181 6.21016H19.569C19.631 6.21016 19.6904 6.23479 19.7343 6.27863C19.7781 6.32247 19.8027 6.38193 19.8027 6.44393V9.19497Z" fill="white"/>
<path d="M104.749 13.475H104.773V13.4383L104.749 13.475ZM104.749 13.475H104.773V13.4383L104.749 13.475ZM104.749 13.475H104.773V13.4383L104.749 13.475ZM104.749 13.475H104.773V13.4383L104.749 13.475ZM104.749 13.475H104.773V13.4383L104.749 13.475ZM104.749 13.475H104.773V13.4383L104.749 13.475ZM104.749 13.475H104.773V13.4383L104.749 13.475ZM104.749 13.475H104.773V13.4383L104.749 13.475ZM104.749 13.475H104.773V13.4383L104.749 13.475ZM104.749 13.475H104.773V13.4383L104.749 13.475ZM104.749 13.475H104.773V13.4383L104.749 13.475ZM104.749 13.475H104.773V13.4383L104.749 13.475ZM104.749 13.475H104.773V13.4383L104.749 13.475ZM104.749 13.475H104.773V13.4383L104.749 13.475ZM104.749 13.475H104.773V13.4383L104.749 13.475ZM104.749 13.475H104.773V13.4383L104.749 13.475ZM103.232 0C100.219 0 97.2739 0.893385 94.7689 2.56718C92.2639 4.24098 90.3115 6.62001 89.1586 9.40343C88.0056 12.1869 87.704 15.2497 88.2917 18.2045C88.8795 21.1594 90.3303 23.8736 92.4606 26.0039C94.5909 28.1343 97.3052 29.5851 100.26 30.1728C103.215 30.7606 106.278 30.4589 109.061 29.306C111.845 28.1531 114.224 26.2006 115.897 23.6956C117.571 21.1906 118.465 18.2455 118.465 15.2328C118.46 11.1941 116.854 7.32218 113.998 4.46645C111.142 1.61071 107.27 0.00441428 103.232 0ZM99.4228 22.0903C99.4219 22.1579 99.3944 22.2223 99.3464 22.2698C99.2983 22.3172 99.2335 22.3438 99.1659 22.3438H96.2308C96.1636 22.3438 96.0991 22.3171 96.0515 22.2696C96.004 22.222 95.9773 22.1576 95.9773 22.0903V12.2276C95.9769 12.194 95.9831 12.1607 95.9956 12.1295C96.0082 12.0984 96.0268 12.0701 96.0504 12.0462C96.0739 12.0223 96.102 12.0033 96.133 11.9903C96.164 11.9774 96.1972 11.9707 96.2308 11.9707H99.1659C99.1997 11.9707 99.2331 11.9774 99.2642 11.9903C99.2954 12.0032 99.3237 12.0221 99.3475 12.046C99.3714 12.0698 99.3903 12.0981 99.4032 12.1293C99.4161 12.1604 99.4228 12.1938 99.4228 12.2276V22.0903ZM97.595 10.6533C97.2302 10.6533 96.8736 10.5451 96.5702 10.3424C96.2669 10.1397 96.0305 9.85166 95.8909 9.51463C95.7513 9.1776 95.7148 8.80674 95.7859 8.44894C95.8571 8.09115 96.0328 7.7625 96.2907 7.50454C96.5487 7.24659 96.8773 7.07092 97.2351 6.99975C97.5929 6.92858 97.9638 6.96511 98.3008 7.10471C98.6378 7.24431 98.9259 7.48072 99.1286 7.78405C99.3313 8.08737 99.4394 8.44398 99.4394 8.80878C99.4399 9.05112 99.3925 9.29117 99.2999 9.51515C99.2074 9.73913 99.0715 9.94264 98.9002 10.114C98.7288 10.2854 98.5253 10.4212 98.3013 10.5137C98.0774 10.6063 97.8373 10.6537 97.595 10.6533ZM111.844 22.0903C111.843 22.1579 111.815 22.2223 111.767 22.2698C111.719 22.3172 111.654 22.3438 111.587 22.3438H108.652C108.619 22.3438 108.586 22.3373 108.555 22.3245C108.524 22.3118 108.496 22.2931 108.473 22.2696C108.449 22.246 108.43 22.2181 108.418 22.1873C108.405 22.1566 108.398 22.1236 108.398 22.0903V16.7904C108.398 15.3962 107.901 14.4556 106.654 14.4556C106.265 14.4578 105.887 14.5801 105.57 14.8058C105.254 15.0315 105.015 15.3496 104.886 15.7164C104.798 15.9875 104.76 16.2722 104.773 16.5569V22.0903C104.773 22.1584 104.746 22.2238 104.698 22.2719C104.649 22.3201 104.584 22.3472 104.516 22.3472H101.581C101.547 22.3472 101.514 22.3405 101.483 22.3275C101.452 22.3146 101.424 22.2956 101.4 22.2717C101.377 22.2478 101.358 22.2195 101.346 22.1884C101.333 22.1572 101.327 22.1239 101.327 22.0903C101.327 20.6828 101.364 13.8486 101.327 12.2409C101.327 12.2073 101.333 12.174 101.346 12.1429C101.358 12.1117 101.377 12.0834 101.4 12.0595C101.424 12.0356 101.452 12.0166 101.483 12.0037C101.514 11.9907 101.547 11.9841 101.581 11.9841H104.509C104.543 11.9836 104.577 11.99 104.608 12.0027C104.639 12.0155 104.668 12.0344 104.692 12.0583C104.716 12.0822 104.735 12.1107 104.747 12.1421C104.76 12.1735 104.767 12.2071 104.766 12.2409V13.4517C105.078 12.9101 105.532 12.4643 106.08 12.1626C106.627 11.861 107.247 11.715 107.871 11.7406C110.136 11.7406 111.837 13.2215 111.837 16.4101L111.844 22.0903ZM104.773 13.485V13.4483L104.749 13.485H104.773ZM104.749 13.485H104.773V13.4483L104.749 13.485ZM104.749 13.485H104.773V13.4483L104.749 13.485ZM104.749 13.485H104.773V13.4483L104.749 13.485ZM104.749 13.485H104.773V13.4483L104.749 13.485ZM104.749 13.485H104.773V13.4483L104.749 13.485ZM104.749 13.485H104.773V13.4483L104.749 13.485ZM104.749 13.485H104.773V13.4483L104.749 13.485ZM104.749 13.485H104.773V13.4483L104.749 13.485ZM104.749 13.485H104.773V13.4483L104.749 13.485ZM104.749 13.485H104.773V13.4483L104.749 13.485ZM104.749 13.485H104.773V13.4483L104.749 13.485ZM104.749 13.485H104.773V13.4483L104.749 13.485ZM104.749 13.485H104.773V13.4483L104.749 13.485ZM104.749 13.485H104.773V13.4483L104.749 13.485Z" fill="white"/>
<path d="M147.231 0C144.218 0 141.273 0.909059 138.768 2.61222C136.263 4.31538 134.311 6.73615 133.158 9.56841C132.005 12.4007 131.703 15.5172 132.291 18.5239C132.879 21.5306 134.33 24.2924 136.46 26.4601C138.59 28.6279 141.304 30.1041 144.259 30.7022C147.214 31.3002 150.277 30.9933 153.06 29.8201C155.844 28.647 158.223 26.6603 159.897 24.1113C161.57 21.5624 162.464 18.5656 162.464 15.5C162.459 11.3905 160.853 7.45064 157.997 4.5448C155.142 1.63895 151.27 0.00448389 147.231 0ZM157.05 9.85901C157.056 9.96245 157.025 10.0646 156.963 10.147C156.566 10.7151 156.09 11.2208 155.548 11.6479C155.468 11.7122 155.332 11.7766 155.332 11.8918C155.332 14.8766 154.583 17.858 152.445 20.0229C149.725 22.774 145.636 23.5227 142.01 22.5029C141.31 22.3051 140.634 22.0302 139.993 21.6831C139.779 21.5645 139.57 21.4425 139.363 21.3036C139.31 21.2596 139.273 21.2223 139.317 21.1918C139.36 21.1613 139.393 21.1681 139.556 21.1918C140.579 21.2843 141.609 21.1502 142.576 20.7988C143.102 20.6125 144.241 20.2364 144.574 19.7282C144.574 19.7282 144.574 19.7282 144.597 19.7045C144.464 19.674 144.334 19.674 144.201 19.6503C143.202 19.3623 141.9 18.8609 141.291 17.1703C141.251 17.0686 141.291 17.0178 141.391 17.0381C141.852 17.1026 142.32 17.0878 142.776 16.9941C142.615 16.9642 142.457 16.9153 142.307 16.8484C141.69 16.5945 141.151 16.1784 140.744 15.6426C140.337 15.1068 140.078 14.4706 139.993 13.7992C139.973 13.659 139.966 13.5172 139.973 13.3757C139.973 13.2741 140.023 13.2436 140.106 13.2978C140.546 13.5265 141.028 13.6636 141.521 13.701C141.361 13.5756 141.215 13.4367 141.068 13.2978C139.993 12.2611 139.576 10.1504 140.435 8.83584C140.505 8.73082 140.552 8.73082 140.639 8.83584C142.606 11.1193 145.034 12.1832 147.964 12.627C148.043 12.627 148.05 12.627 148.04 12.5389C147.946 12.0231 147.953 11.4936 148.06 10.9804C148.192 10.4413 148.439 9.93823 148.783 9.50666C149.114 9.08705 149.527 8.74111 149.995 8.49027C150.429 8.26362 150.903 8.12443 151.39 8.08033C151.4 8.08829 151.412 8.09262 151.425 8.09262C151.437 8.09262 151.45 8.08829 151.46 8.08033H151.39H151.503C152.457 8.02084 153.396 8.34577 154.117 8.98492C154.184 9.04329 154.247 9.10794 154.303 9.17803C154.322 9.19719 154.345 9.21079 154.371 9.21735C154.397 9.22392 154.424 9.22321 154.45 9.2153C155.191 9.03104 155.907 8.75334 156.58 8.38863C156.595 8.3809 156.612 8.37686 156.629 8.37686C156.646 8.37686 156.662 8.3809 156.677 8.38863C156.707 8.41235 156.677 8.453 156.677 8.48349C156.547 8.88779 156.344 9.26362 156.078 9.59136C155.908 9.80481 155.482 10.3401 155.195 10.3875C155.812 10.2843 156.413 10.101 156.983 9.84207C157.057 9.80819 157.05 9.79464 157.05 9.84207V9.85901Z" fill="white"/>
<path d="M194.3 15.3441L190.153 12.9726C189.973 12.8709 189.814 12.9997 189.814 13.2063V17.8343C189.814 18.0376 189.977 18.1731 190.153 18.0715L194.269 15.8117C194.312 15.7913 194.349 15.7597 194.376 15.7202C194.403 15.6807 194.419 15.6346 194.422 15.5869C194.425 15.5392 194.416 15.4915 194.394 15.4488C194.373 15.4061 194.34 15.37 194.3 15.3441ZM194.3 15.3441L190.153 12.9726C189.973 12.8709 189.814 12.9997 189.814 13.2063V17.8343C189.814 18.0376 189.977 18.1731 190.153 18.0715L194.269 15.8117C194.312 15.7913 194.349 15.7597 194.376 15.7202C194.403 15.6807 194.419 15.6346 194.422 15.5869C194.425 15.5392 194.416 15.4915 194.394 15.4488C194.373 15.4061 194.34 15.37 194.3 15.3441ZM194.3 15.3441L190.153 12.9726C189.973 12.8709 189.814 12.9997 189.814 13.2063V17.8343C189.814 18.0376 189.977 18.1731 190.153 18.0715L194.269 15.8117C194.312 15.7913 194.349 15.7597 194.376 15.7202C194.403 15.6807 194.419 15.6346 194.422 15.5869C194.425 15.5392 194.416 15.4915 194.394 15.4488C194.373 15.4061 194.34 15.37 194.3 15.3441ZM194.3 15.3441L190.153 12.9726C189.973 12.8709 189.814 12.9997 189.814 13.2063V17.8343C189.814 18.0376 189.977 18.1731 190.153 18.0715L194.269 15.8117C194.312 15.7913 194.349 15.7597 194.376 15.7202C194.403 15.6807 194.419 15.6346 194.422 15.5869C194.425 15.5392 194.416 15.4915 194.394 15.4488C194.373 15.4061 194.34 15.37 194.3 15.3441ZM194.3 15.3441L190.153 12.9726C189.973 12.8709 189.814 12.9997 189.814 13.2063V17.8343C189.814 18.0376 189.977 18.1731 190.153 18.0715L194.269 15.8117C194.312 15.7913 194.349 15.7597 194.376 15.7202C194.403 15.6807 194.419 15.6346 194.422 15.5869C194.425 15.5392 194.416 15.4915 194.394 15.4488C194.373 15.4061 194.34 15.37 194.3 15.3441ZM194.3 15.3441L190.153 12.9726C189.973 12.8709 189.814 12.9997 189.814 13.2063V17.8343C189.814 18.0376 189.977 18.1731 190.153 18.0715L194.269 15.8117C194.312 15.7913 194.349 15.7597 194.376 15.7202C194.403 15.6807 194.419 15.6346 194.422 15.5869C194.425 15.5392 194.416 15.4915 194.394 15.4488C194.373 15.4061 194.34 15.37 194.3 15.3441ZM194.3 15.3441L190.153 12.9726C189.973 12.8709 189.814 12.9997 189.814 13.2063V17.8343C189.814 18.0376 189.977 18.1731 190.153 18.0715L194.269 15.8117C194.312 15.7913 194.349 15.7597 194.376 15.7202C194.403 15.6807 194.419 15.6346 194.422 15.5869C194.425 15.5392 194.416 15.4915 194.394 15.4488C194.373 15.4061 194.34 15.37 194.3 15.3441ZM194.3 15.3441L190.153 12.9726C189.973 12.8709 189.814 12.9997 189.814 13.2063V17.8343C189.814 18.0376 189.977 18.1731 190.153 18.0715L194.269 15.8117C194.312 15.7913 194.349 15.7597 194.376 15.7202C194.403 15.6807 194.419 15.6346 194.422 15.5869C194.425 15.5392 194.416 15.4915 194.394 15.4488C194.373 15.4061 194.34 15.37 194.3 15.3441ZM194.3 15.3441L190.153 12.9726C189.973 12.8709 189.814 12.9997 189.814 13.2063V17.8343C189.814 18.0376 189.977 18.1731 190.153 18.0715L194.269 15.8117C194.312 15.7913 194.349 15.7597 194.376 15.7202C194.403 15.6807 194.419 15.6346 194.422 15.5869C194.425 15.5392 194.416 15.4915 194.394 15.4488C194.373 15.4061 194.34 15.37 194.3 15.3441ZM194.3 15.3441L190.153 12.9726C189.973 12.8709 189.814 12.9997 189.814 13.2063V17.8343C189.814 18.0376 189.977 18.1731 190.153 18.0715L194.269 15.8117C194.312 15.7913 194.349 15.7597 194.376 15.7202C194.403 15.6807 194.419 15.6346 194.422 15.5869C194.425 15.5392 194.416 15.4915 194.394 15.4488C194.373 15.4061 194.34 15.37 194.3 15.3441ZM194.3 15.3441L190.153 12.9726C189.973 12.8709 189.814 12.9997 189.814 13.2063V17.8343C189.814 18.0376 189.977 18.1731 190.153 18.0715L194.269 15.8117C194.312 15.7913 194.349 15.7597 194.376 15.7202C194.403 15.6807 194.419 15.6346 194.422 15.5869C194.425 15.5392 194.416 15.4915 194.394 15.4488C194.373 15.4061 194.34 15.37 194.3 15.3441ZM194.3 15.3441L190.153 12.9726C189.973 12.8709 189.814 12.9997 189.814 13.2063V17.8343C189.814 18.0376 189.977 18.1731 190.153 18.0715L194.269 15.8117C194.312 15.7913 194.349 15.7597 194.376 15.7202C194.403 15.6807 194.419 15.6346 194.422 15.5869C194.425 15.5392 194.416 15.4915 194.394 15.4488C194.373 15.4061 194.34 15.37 194.3 15.3441ZM194.3 15.3441L190.153 12.9726C189.973 12.8709 189.814 12.9997 189.814 13.2063V17.8343C189.814 18.0376 189.977 18.1731 190.153 18.0715L194.269 15.8117C194.312 15.7913 194.349 15.7597 194.376 15.7202C194.403 15.6807 194.419 15.6346 194.422 15.5869C194.425 15.5392 194.416 15.4915 194.394 15.4488C194.373 15.4061 194.34 15.37 194.3 15.3441ZM194.3 15.3441L190.153 12.9726C189.973 12.8709 189.814 12.9997 189.814 13.2063V17.8343C189.814 18.0376 189.977 18.1731 190.153 18.0715L194.269 15.8117C194.312 15.7913 194.349 15.7597 194.376 15.7202C194.403 15.6807 194.419 15.6346 194.422 15.5869C194.425 15.5392 194.416 15.4915 194.394 15.4488C194.373 15.4061 194.34 15.37 194.3 15.3441ZM194.3 15.3441L190.153 12.9726C189.973 12.8709 189.814 12.9997 189.814 13.2063V17.8343C189.814 18.0376 189.977 18.1731 190.153 18.0715L194.269 15.8117C194.312 15.7913 194.349 15.7597 194.376 15.7202C194.403 15.6807 194.419 15.6346 194.422 15.5869C194.425 15.5392 194.416 15.4915 194.394 15.4488C194.373 15.4061 194.34 15.37 194.3 15.3441ZM194.3 15.3441L190.153 12.9726C189.973 12.8709 189.814 12.9997 189.814 13.2063V17.8343C189.814 18.0376 189.977 18.1731 190.153 18.0715L194.269 15.8117C194.312 15.7913 194.349 15.7597 194.376 15.7202C194.403 15.6807 194.419 15.6346 194.422 15.5869C194.425 15.5392 194.416 15.4915 194.394 15.4488C194.373 15.4061 194.34 15.37 194.3 15.3441ZM194.3 15.3441L190.153 12.9726C189.973 12.8709 189.814 12.9997 189.814 13.2063V17.8343C189.814 18.0376 189.977 18.1731 190.153 18.0715L194.269 15.8117C194.312 15.7913 194.349 15.7597 194.376 15.7202C194.403 15.6807 194.419 15.6346 194.422 15.5869C194.425 15.5392 194.416 15.4915 194.394 15.4488C194.373 15.4061 194.34 15.37 194.3 15.3441ZM194.3 15.3441L190.153 12.9726C189.973 12.8709 189.814 12.9997 189.814 13.2063V17.8343C189.814 18.0376 189.977 18.1731 190.153 18.0715L194.269 15.8117C194.312 15.7913 194.349 15.7597 194.376 15.7202C194.403 15.6807 194.419 15.6346 194.422 15.5869C194.425 15.5392 194.416 15.4915 194.394 15.4488C194.373 15.4061 194.34 15.37 194.3 15.3441ZM194.3 15.3441L190.153 12.9726C189.973 12.8709 189.814 12.9997 189.814 13.2063V17.8343C189.814 18.0376 189.977 18.1731 190.153 18.0715L194.269 15.8117C194.312 15.7913 194.349 15.7597 194.376 15.7202C194.403 15.6807 194.419 15.6346 194.422 15.5869C194.425 15.5392 194.416 15.4915 194.394 15.4488C194.373 15.4061 194.34 15.37 194.3 15.3441ZM194.3 15.3441L190.153 12.9726C189.973 12.8709 189.814 12.9997 189.814 13.2063V17.8343C189.814 18.0376 189.977 18.1731 190.153 18.0715L194.269 15.8117C194.312 15.7913 194.349 15.7597 194.376 15.7202C194.403 15.6807 194.419 15.6346 194.422 15.5869C194.425 15.5392 194.416 15.4915 194.394 15.4488C194.373 15.4061 194.34 15.37 194.3 15.3441ZM191.498 0C188.432 0 185.435 0.909059 182.886 2.61222C180.338 4.31538 178.351 6.73615 177.178 9.5684C176.005 12.4007 175.698 15.5172 176.296 18.5239C176.894 21.5306 178.37 24.2924 180.538 26.4601C182.705 28.6279 185.467 30.1041 188.474 30.7022C191.481 31.3002 194.597 30.9933 197.429 29.8201C200.262 28.647 202.682 26.6603 204.386 24.1113C206.089 21.5624 206.998 18.5656 206.998 15.5C206.993 11.3905 205.359 7.45064 202.453 4.5448C199.547 1.63895 195.607 0.00448389 191.498 0ZM200.777 17.9868C200.777 19.042 200.359 20.054 199.613 20.8005C198.867 21.5469 197.855 21.9667 196.8 21.9676H186.473C185.418 21.9667 184.407 21.5469 183.661 20.8005C182.915 20.054 182.496 19.042 182.496 17.9868V13.1487C182.498 12.095 182.918 11.0851 183.663 10.3406C184.409 9.59615 185.42 9.17803 186.473 9.17803H196.8C197.854 9.17803 198.864 9.59615 199.61 10.3406C200.356 11.0851 200.776 12.095 200.777 13.1487V17.9868ZM194.3 15.3441L190.153 12.9726C189.973 12.8709 189.814 12.9997 189.814 13.2063V17.8343C189.814 18.0376 189.977 18.1731 190.153 18.0715L194.269 15.8117C194.312 15.7913 194.349 15.7597 194.376 15.7202C194.403 15.6807 194.419 15.6346 194.422 15.5869C194.425 15.5392 194.416 15.4915 194.394 15.4488C194.373 15.4061 194.34 15.37 194.3 15.3441ZM194.3 15.3441L190.153 12.9726C189.973 12.8709 189.814 12.9997 189.814 13.2063V17.8343C189.814 18.0376 189.977 18.1731 190.153 18.0715L194.269 15.8117C194.312 15.7913 194.349 15.7597 194.376 15.7202C194.403 15.6807 194.419 15.6346 194.422 15.5869C194.425 15.5392 194.416 15.4915 194.394 15.4488C194.373 15.4061 194.34 15.37 194.3 15.3441ZM194.3 15.3441L190.153 12.9726C189.973 12.8709 189.814 12.9997 189.814 13.2063V17.8343C189.814 18.0376 189.977 18.1731 190.153 18.0715L194.269 15.8117C194.312 15.7913 194.349 15.7597 194.376 15.7202C194.403 15.6807 194.419 15.6346 194.422 15.5869C194.425 15.5392 194.416 15.4915 194.394 15.4488C194.373 15.4061 194.34 15.37 194.3 15.3441ZM194.3 15.3441L190.153 12.9726C189.973 12.8709 189.814 12.9997 189.814 13.2063V17.8343C189.814 18.0376 189.977 18.1731 190.153 18.0715L194.269 15.8117C194.312 15.7913 194.349 15.7597 194.376 15.7202C194.403 15.6807 194.419 15.6346 194.422 15.5869C194.425 15.5392 194.416 15.4915 194.394 15.4488C194.373 15.4061 194.34 15.37 194.3 15.3441ZM194.3 15.3441L190.153 12.9726C189.973 12.8709 189.814 12.9997 189.814 13.2063V17.8343C189.814 18.0376 189.977 18.1731 190.153 18.0715L194.269 15.8117C194.312 15.7913 194.349 15.7597 194.376 15.7202C194.403 15.6807 194.419 15.6346 194.422 15.5869C194.425 15.5392 194.416 15.4915 194.394 15.4488C194.373 15.4061 194.34 15.37 194.3 15.3441ZM194.3 15.3441L190.153 12.9726C189.973 12.8709 189.814 12.9997 189.814 13.2063V17.8343C189.814 18.0376 189.977 18.1731 190.153 18.0715L194.269 15.8117C194.312 15.7913 194.349 15.7597 194.376 15.7202C194.403 15.6807 194.419 15.6346 194.422 15.5869C194.425 15.5392 194.416 15.4915 194.394 15.4488C194.373 15.4061 194.34 15.37 194.3 15.3441ZM194.3 15.3441L190.153 12.9726C189.973 12.8709 189.814 12.9997 189.814 13.2063V17.8343C189.814 18.0376 189.977 18.1731 190.153 18.0715L194.269 15.8117C194.312 15.7913 194.349 15.7597 194.376 15.7202C194.403 15.6807 194.419 15.6346 194.422 15.5869C194.425 15.5392 194.416 15.4915 194.394 15.4488C194.373 15.4061 194.34 15.37 194.3 15.3441ZM194.3 15.3441L190.153 12.9726C189.973 12.8709 189.814 12.9997 189.814 13.2063V17.8343C189.814 18.0376 189.977 18.1731 190.153 18.0715L194.269 15.8117C194.312 15.7913 194.349 15.7597 194.376 15.7202C194.403 15.6807 194.419 15.6346 194.422 15.5869C194.425 15.5392 194.416 15.4915 194.394 15.4488C194.373 15.4061 194.34 15.37 194.3 15.3441ZM194.3 15.3441L190.153 12.9726C189.973 12.8709 189.814 12.9997 189.814 13.2063V17.8343C189.814 18.0376 189.977 18.1731 190.153 18.0715L194.269 15.8117C194.312 15.7913 194.349 15.7597 194.376 15.7202C194.403 15.6807 194.419 15.6346 194.422 15.5869C194.425 15.5392 194.416 15.4915 194.394 15.4488C194.373 15.4061 194.34 15.37 194.3 15.3441ZM194.3 15.3441L190.153 12.9726C189.973 12.8709 189.814 12.9997 189.814 13.2063V17.8343C189.814 18.0376 189.977 18.1731 190.153 18.0715L194.269 15.8117C194.312 15.7913 194.349 15.7597 194.376 15.7202C194.403 15.6807 194.419 15.6346 194.422 15.5869C194.425 15.5392 194.416 15.4915 194.394 15.4488C194.373 15.4061 194.34 15.37 194.3 15.3441ZM194.3 15.3441L190.153 12.9726C189.973 12.8709 189.814 12.9997 189.814 13.2063V17.8343C189.814 18.0376 189.977 18.1731 190.153 18.0715L194.269 15.8117C194.312 15.7913 194.349 15.7597 194.376 15.7202C194.403 15.6807 194.419 15.6346 194.422 15.5869C194.425 15.5392 194.416 15.4915 194.394 15.4488C194.373 15.4061 194.34 15.37 194.3 15.3441ZM194.3 15.3441L190.153 12.9726C189.973 12.8709 189.814 12.9997 189.814 13.2063V17.8343C189.814 18.0376 189.977 18.1731 190.153 18.0715L194.269 15.8117C194.312 15.7913 194.349 15.7597 194.376 15.7202C194.403 15.6807 194.419 15.6346 194.422 15.5869C194.425 15.5392 194.416 15.4915 194.394 15.4488C194.373 15.4061 194.34 15.37 194.3 15.3441ZM194.3 15.3441L190.153 12.9726C189.973 12.8709 189.814 12.9997 189.814 13.2063V17.8343C189.814 18.0376 189.977 18.1731 190.153 18.0715L194.269 15.8117C194.312 15.7913 194.349 15.7597 194.376 15.7202C194.403 15.6807 194.419 15.6346 194.422 15.5869C194.425 15.5392 194.416 15.4915 194.394 15.4488C194.373 15.4061 194.34 15.37 194.3 15.3441ZM194.3 15.3441L190.153 12.9726C189.973 12.8709 189.814 12.9997 189.814 13.2063V17.8343C189.814 18.0376 189.977 18.1731 190.153 18.0715L194.269 15.8117C194.312 15.7913 194.349 15.7597 194.376 15.7202C194.403 15.6807 194.419 15.6346 194.422 15.5869C194.425 15.5392 194.416 15.4915 194.394 15.4488C194.373 15.4061 194.34 15.37 194.3 15.3441ZM194.3 15.3441L190.153 12.9726C189.973 12.8709 189.814 12.9997 189.814 13.2063V17.8343C189.814 18.0376 189.977 18.1731 190.153 18.0715L194.269 15.8117C194.312 15.7913 194.349 15.7597 194.376 15.7202C194.403 15.6807 194.419 15.6346 194.422 15.5869C194.425 15.5392 194.416 15.4915 194.394 15.4488C194.373 15.4061 194.34 15.37 194.3 15.3441ZM194.3 15.3441L190.153 12.9726C189.973 12.8709 189.814 12.9997 189.814 13.2063V17.8343C189.814 18.0376 189.977 18.1731 190.153 18.0715L194.269 15.8117C194.312 15.7913 194.349 15.7597 194.376 15.7202C194.403 15.6807 194.419 15.6346 194.422 15.5869C194.425 15.5392 194.416 15.4915 194.394 15.4488C194.373 15.4061 194.34 15.37 194.3 15.3441ZM194.3 15.3441L190.153 12.9726C189.973 12.8709 189.814 12.9997 189.814 13.2063V17.8343C189.814 18.0376 189.977 18.1731 190.153 18.0715L194.269 15.8117C194.312 15.7913 194.349 15.7597 194.376 15.7202C194.403 15.6807 194.419 15.6346 194.422 15.5869C194.425 15.5392 194.416 15.4915 194.394 15.4488C194.373 15.4061 194.34 15.37 194.3 15.3441ZM194.3 15.3441L190.153 12.9726C189.973 12.8709 189.814 12.9997 189.814 13.2063V17.8343C189.814 18.0376 189.977 18.1731 190.153 18.0715L194.269 15.8117C194.312 15.7913 194.349 15.7597 194.376 15.7202C194.403 15.6807 194.419 15.6346 194.422 15.5869C194.425 15.5392 194.416 15.4915 194.394 15.4488C194.373 15.4061 194.34 15.37 194.3 15.3441ZM194.3 15.3441L190.153 12.9726C189.973 12.8709 189.814 12.9997 189.814 13.2063V17.8343C189.814 18.0376 189.977 18.1731 190.153 18.0715L194.269 15.8117C194.312 15.7913 194.349 15.7597 194.376 15.7202C194.403 15.6807 194.419 15.6346 194.422 15.5869C194.425 15.5392 194.416 15.4915 194.394 15.4488C194.373 15.4061 194.34 15.37 194.3 15.3441Z" fill="white"/>
<circle cx="59.2301" cy="15.2306" r="15.2306" fill="white"/>
<path d="M59.23 6.76904C56.9338 6.76904 56.645 6.77962 55.7428 6.81981C54.8406 6.86212 54.2261 7.00385 53.6877 7.21327C53.123 7.42567 52.6116 7.75885 52.189 8.18951C51.7586 8.61226 51.4255 9.12369 51.2128 9.68824C51.0034 10.2255 50.8606 10.8411 50.8193 11.7401C50.7791 12.6445 50.7686 12.9321 50.7686 15.2315C50.7686 17.5288 50.7791 17.8165 50.8193 18.7187C50.8616 19.6198 51.0034 20.2344 51.2128 20.7727C51.4296 21.3291 51.7184 21.8008 52.189 22.2715C52.6586 22.7421 53.1304 23.0319 53.6867 23.2477C54.2261 23.4571 54.8396 23.5999 55.7407 23.6411C56.644 23.6813 56.9317 23.6919 59.23 23.6919C61.5283 23.6919 61.815 23.6813 62.7182 23.6411C63.6183 23.5988 64.2349 23.4571 64.7733 23.2477C65.3376 23.0352 65.8488 22.702 66.271 22.2715C66.7416 21.8008 67.0304 21.3291 67.2472 20.7727C67.4556 20.2344 67.5983 19.6198 67.6407 18.7187C67.6808 17.8165 67.6914 17.5288 67.6914 15.2305C67.6914 12.9321 67.6808 12.6445 67.6407 11.7412C67.5983 10.8411 67.4556 10.2255 67.2472 9.68824C67.0345 9.12368 66.7014 8.61224 66.271 8.18951C65.8486 7.75869 65.337 7.42549 64.7722 7.21327C64.2328 7.00385 63.6172 6.86106 62.7172 6.81981C61.8139 6.77962 61.5273 6.76904 59.2279 6.76904H59.231H59.23ZM58.4716 8.29422H59.231C61.4903 8.29422 61.7578 8.30162 62.6495 8.34287C63.4745 8.37989 63.9229 8.51844 64.2212 8.63373C64.6157 8.7871 64.8981 8.97113 65.1942 9.26728C65.4904 9.56343 65.6734 9.84477 65.8267 10.2403C65.9431 10.5376 66.0806 10.986 66.1176 11.811C66.1588 12.7026 66.1673 12.9702 66.1673 15.2284C66.1673 17.4865 66.1588 17.7552 66.1176 18.6468C66.0806 19.4718 65.942 19.9192 65.8267 20.2174C65.6911 20.5848 65.4746 20.917 65.1932 21.1894C64.897 21.4856 64.6157 21.6686 64.2201 21.8219C63.924 21.9383 63.4755 22.0758 62.6495 22.1139C61.7578 22.154 61.4903 22.1636 59.231 22.1636C56.9718 22.1636 56.7032 22.154 55.8116 22.1139C54.9866 22.0758 54.5392 21.9383 54.2409 21.8219C53.8734 21.6865 53.5409 21.4703 53.2679 21.1894C52.9862 20.9166 52.7694 20.5841 52.6332 20.2164C52.518 19.9192 52.3794 19.4707 52.3424 18.6457C52.3022 17.7541 52.2937 17.4865 52.2937 15.2262C52.2937 12.967 52.3022 12.7005 52.3424 11.8089C52.3805 10.9839 52.518 10.5354 52.6343 10.2372C52.7877 9.84266 52.9717 9.56026 53.2679 9.26411C53.564 8.96796 53.8453 8.78498 54.2409 8.63162C54.5392 8.51527 54.9866 8.37777 55.8116 8.3397C56.5921 8.30374 56.8946 8.29316 58.4716 8.2921V8.29422ZM63.7473 9.69881C63.614 9.69881 63.482 9.72508 63.3588 9.77611C63.2356 9.82713 63.1236 9.90192 63.0294 9.99621C62.9351 10.0905 62.8603 10.2024 62.8093 10.3256C62.7582 10.4488 62.732 10.5808 62.732 10.7142C62.732 10.8475 62.7582 10.9796 62.8093 11.1028C62.8603 11.2259 62.9351 11.3379 63.0294 11.4322C63.1236 11.5264 63.2356 11.6012 63.3588 11.6523C63.482 11.7033 63.614 11.7296 63.7473 11.7296C64.0166 11.7296 64.2749 11.6226 64.4653 11.4322C64.6557 11.2417 64.7627 10.9835 64.7627 10.7142C64.7627 10.4449 64.6557 10.1866 64.4653 9.99621C64.2749 9.80579 64.0166 9.69881 63.7473 9.69881ZM59.231 10.8855C58.6547 10.8765 58.0823 10.9823 57.5472 11.1966C57.0121 11.411 56.525 11.7296 56.1142 12.134C55.7035 12.5384 55.3772 13.0205 55.1546 13.5522C54.9319 14.0839 54.8172 14.6546 54.8172 15.231C54.8172 15.8074 54.9319 16.3781 55.1546 16.9098C55.3772 17.4415 55.7035 17.9236 56.1142 18.328C56.525 18.7324 57.0121 19.051 57.5472 19.2654C58.0823 19.4797 58.6547 19.5855 59.231 19.5765C60.3718 19.5587 61.4598 19.093 62.2602 18.28C63.0606 17.467 63.5093 16.3719 63.5093 15.231C63.5093 14.0901 63.0606 12.995 62.2602 12.182C61.4598 11.369 60.3718 10.9033 59.231 10.8855ZM59.231 12.4096C59.9792 12.4096 60.6967 12.7068 61.2257 13.2358C61.7547 13.7649 62.0519 14.4823 62.0519 15.2305C62.0519 15.9786 61.7547 16.6961 61.2257 17.2251C60.6967 17.7541 59.9792 18.0513 59.231 18.0513C58.4829 18.0513 57.7654 17.7541 57.2364 17.2251C56.7074 16.6961 56.4102 15.9786 56.4102 15.2305C56.4102 14.4823 56.7074 13.7649 57.2364 13.2358C57.7654 12.7068 58.4829 12.4096 59.231 12.4096Z" fill="#171235"/>
</svg>
